<svg width="465" height="465" viewBox="0 0 465 465" fill="none" xmlns="http://www.w3.org/2000/svg">
<rect width="465" height="465" rx="91" fill="#FF9900"/>
<path d="M116.206 109.351L239.5 58.1356L362.794 109.351L413.865 233L362.794 356.649L239.5 407.864L116.206 356.649L65.1347 233L116.206 109.351Z" stroke="#FAF6F1" stroke-width="2.09749"/>
<path d="M311 305H167C167 305 209.177 258.024 240.622 258.024C272.068 258.024 311 305 311 305Z" fill="#FAF6F1"/>
<path d="M293.281 190.389C293.281 227.607 268.923 257.778 238.875 257.778C208.828 257.778 184.47 227.607 184.47 190.389C184.47 153.171 208.828 123 238.875 123C268.923 123 293.281 153.171 293.281 190.389Z" fill="#FAF6F1"/>
<path d="M88 265H39C39 265 53.3518 248.481 64.052 248.481C74.7522 248.481 88 265 88 265Z" fill="#FAF6F1"/>
<path d="M81.9705 224.697C81.9705 237.785 73.682 248.395 63.4575 248.395C53.2331 248.395 44.9445 237.785 44.9445 224.697C44.9445 211.61 53.2331 201 63.4575 201C73.682 201 81.9705 211.61 81.9705 224.697Z" fill="#FAF6F1"/>
<path d="M440 265H391C391 265 405.352 248.481 416.052 248.481C426.752 248.481 440 265 440 265Z" fill="#FAF6F1"/>
<path d="M433.971 224.697C433.971 237.785 425.682 248.395 415.458 248.395C405.233 248.395 396.945 237.785 396.945 224.697C396.945 211.61 405.233 201 415.458 201C425.682 201 433.971 211.61 433.971 224.697Z" fill="#FAF6F1"/>
<path d="M264 87H215C215 87 229.352 70.9973 240.052 70.9973C250.752 70.9973 264 87 264 87Z" fill="#FAF6F1"/>
<path d="M257.971 47.9568C257.971 60.6354 249.682 70.9135 239.458 70.9135C229.233 70.9135 220.945 60.6354 220.945 47.9568C220.945 35.2781 229.233 25 239.458 25C249.682 25 257.971 35.2781 257.971 47.9568Z" fill="#FAF6F1"/>
<path d="M264 441H215C215 441 229.352 424.739 240.052 424.739C250.752 424.739 264 441 264 441Z" fill="#FAF6F1"/>
<path d="M257.971 401.327C257.971 414.21 249.682 424.654 239.458 424.654C229.233 424.654 220.945 414.21 220.945 401.327C220.945 388.444 229.233 378 239.458 378C249.682 378 257.971 388.444 257.971 401.327Z" fill="#FAF6F1"/>
<path d="M138 387H88C88 387 102.645 370.481 113.563 370.481C124.482 370.481 138 387 138 387Z" fill="#FAF6F1"/>
<path d="M131.847 346.697C131.847 359.785 123.39 370.395 112.957 370.395C102.524 370.395 94.0659 359.785 94.0659 346.697C94.0659 333.61 102.524 323 112.957 323C123.39 323 131.847 333.61 131.847 346.697Z" fill="#FAF6F1"/>
<path d="M144 140H94C94 140 108.645 123.481 119.563 123.481C130.482 123.481 144 140 144 140Z" fill="#FAF6F1"/>
<path d="M137.847 99.6973C137.847 112.785 129.39 123.395 118.957 123.395C108.524 123.395 100.066 112.785 100.066 99.6973C100.066 86.6096 108.524 76 118.957 76C129.39 76 137.847 86.6096 137.847 99.6973Z" fill="#FAF6F1"/>
<path d="M391 387H341C341 387 355.645 370.481 366.563 370.481C377.482 370.481 391 387 391 387Z" fill="#FAF6F1"/>
<path d="M384.847 346.697C384.847 359.785 376.39 370.395 365.957 370.395C355.524 370.395 347.066 359.785 347.066 346.697C347.066 333.61 355.524 323 365.957 323C376.39 323 384.847 333.61 384.847 346.697Z" fill="#FAF6F1"/>
<path d="M391 140H341C341 140 355.645 123.481 366.563 123.481C377.482 123.481 391 140 391 140Z" fill="#FAF6F1"/>
<path d="M384.847 99.6973C384.847 112.785 376.39 123.395 365.957 123.395C355.524 123.395 347.066 112.785 347.066 99.6973C347.066 86.6096 355.524 76 365.957 76C376.39 76 384.847 86.6096 384.847 99.6973Z" fill="#FAF6F1"/>
</svg>
