<svg width="586" height="586" viewBox="0 0 586 586" fill="none" xmlns="http://www.w3.org/2000/svg">
<g clip-path="url(#clip0_356_887)">
<rect width="586" height="586" rx="293" fill="white"/>
<circle cx="293" cy="293" r="285.5" fill="#E78400" stroke="#FEB701" stroke-width="15"/>
<path d="M176 108.5H131.5V129L195.5 183.5L176 108.5Z" fill="#E78400"/>
<path d="M403.5 108H448V128.5L384 183L403.5 108Z" fill="#E78400"/>
<path d="M554.641 518.86C536.038 542.059 315.403 550.298 292.907 518.86C270.411 487.423 292.907 430.186 292.907 430.186C292.907 430.186 327.733 347.148 370.129 371.43C412.526 395.713 435.238 401.35 477.635 371.43C520.032 341.511 554.641 430.186 554.641 430.186C554.641 430.186 573.244 495.662 554.641 518.86Z" fill="#F5F5F5"/>
<ellipse cx="423.155" cy="286.529" rx="81.6872" ry="81.6872" fill="#F5F5F5"/>
<path d="M264.447 520.435C245.844 543.59 25.2091 551.814 2.71297 520.435C-19.7831 489.056 2.71311 431.925 2.71311 431.925C2.71311 431.925 37.5389 349.041 79.9352 373.279C122.331 397.516 145.044 403.143 187.441 373.279C229.837 343.415 264.447 431.925 264.447 431.925C264.447 431.925 283.05 497.279 264.447 520.435Z" fill="#F5F5F5"/>
<ellipse cx="132.961" cy="288.535" rx="81.6872" ry="81.5353" fill="#F5F5F5"/>
<path d="M262 334C254.333 338.5 229 374.5 229 374.5H356L319 334V279L375.5 274V222L481 127V79.5H396V39H180.5V82.5H100V127L207 222V274L262 279V334Z" fill="#FEB701"/>
<rect x="198" y="374" width="186" height="186" fill="#FEB701"/>
<rect x="218" y="391" width="146" height="152" fill="#FDCE3A"/>
<circle cx="293" cy="293" r="285.5" stroke="#FEB701" stroke-width="15"/>
</g>
<defs>
<clipPath id="clip0_356_887">
<rect width="586" height="586" rx="293" fill="white"/>
</clipPath>
</defs>
</svg>
