<svg width="250" height="250" viewBox="0 0 250 250" fill="none" xmlns="http://www.w3.org/2000/svg">
<rect width="250" height="250" rx="10" fill="#5F9C86"/>
<rect x="231" y="231" width="25" height="25" transform="rotate(-180 231 231)" fill="#EBF8F5"/>
<rect x="231" y="204" width="25" height="25" transform="rotate(-180 231 204)" fill="#EBF8F5"/>
<rect x="204" y="231" width="25" height="25" transform="rotate(-180 204 231)" fill="#EBF8F5"/>
<rect x="231" y="177" width="25" height="25" transform="rotate(-180 231 177)" fill="#EBF8F5"/>
<rect x="204" y="204" width="25" height="25" transform="rotate(-180 204 204)" fill="#EBF8F5"/>
<rect x="177" y="231" width="25" height="25" transform="rotate(-180 177 231)" fill="#EBF8F5"/>
<rect x="231" y="150" width="25" height="25" transform="rotate(-180 231 150)" fill="#EBF8F5"/>
<rect x="204" y="177" width="25" height="25" transform="rotate(-180 204 177)" fill="#EBF8F5"/>
<rect x="177" y="204" width="25" height="25" transform="rotate(-180 177 204)" fill="#EBF8F5"/>
<rect x="150" y="231" width="25" height="25" transform="rotate(-180 150 231)" fill="#EBF8F5"/>
<rect x="231" y="123" width="25" height="25" transform="rotate(-180 231 123)" fill="#EBF8F5"/>
<rect x="204" y="150" width="25" height="25" transform="rotate(-180 204 150)" fill="#EBF8F5"/>
<rect x="177" y="177" width="25" height="25" transform="rotate(-180 177 177)" fill="#EBF8F5"/>
<rect x="150" y="204" width="25" height="25" transform="rotate(-180 150 204)" fill="#EBF8F5"/>
<rect x="123" y="231" width="25" height="25" transform="rotate(-180 123 231)" fill="#EBF8F5"/>
<rect x="231" y="96" width="25" height="25" transform="rotate(-180 231 96)" fill="#EBF8F5"/>
<rect x="204" y="123" width="25" height="25" transform="rotate(-180 204 123)" fill="#EBF8F5"/>
<rect x="177" y="150" width="25" height="25" transform="rotate(-180 177 150)" fill="#EBF8F5"/>
<rect x="150" y="177" width="25" height="25" transform="rotate(-180 150 177)" fill="#EBF8F5"/>
<rect x="123" y="204" width="25" height="25" transform="rotate(-180 123 204)" fill="#EBF8F5"/>
<rect x="96" y="231" width="25" height="25" transform="rotate(-180 96 231)" fill="#EBF8F5"/>
<rect x="231" y="69" width="25" height="25" transform="rotate(-180 231 69)" fill="#EBF8F5"/>
<rect x="204" y="96" width="25" height="25" transform="rotate(-180 204 96)" fill="#EBF8F5"/>
<rect x="177" y="123" width="25" height="25" transform="rotate(-180 177 123)" fill="#EBF8F5"/>
<rect x="150" y="150" width="25" height="25" transform="rotate(-180 150 150)" fill="#EBF8F5"/>
<rect x="123" y="177" width="25" height="25" transform="rotate(-180 123 177)" fill="#EBF8F5"/>
<rect x="96" y="204" width="25" height="25" transform="rotate(-180 96 204)" fill="#EBF8F5"/>
<rect x="69" y="231" width="25" height="25" transform="rotate(-180 69 231)" fill="#EBF8F5"/>
<rect x="42" y="231" width="25" height="25" transform="rotate(-180 42 231)" fill="#EBF8F5"/>
<rect x="231" y="42" width="25" height="25" transform="rotate(-180 231 42)" fill="#EBF8F5"/>
<rect x="204" y="69" width="25" height="25" transform="rotate(-180 204 69)" fill="#EBF8F5"/>
<rect x="177" y="96" width="25" height="25" transform="rotate(-180 177 96)" fill="#EBF8F5"/>
<rect x="150" y="123" width="25" height="25" transform="rotate(-180 150 123)" fill="#EBF8F5"/>
<rect x="123" y="150" width="25" height="25" transform="rotate(-180 123 150)" fill="#EBF8F5"/>
<rect x="96" y="177" width="25" height="25" transform="rotate(-180 96 177)" fill="#EBF8F5"/>
<rect x="69" y="204" width="25" height="25" transform="rotate(-180 69 204)" fill="#EBF8F5"/>
</svg>
