<svg width="729" height="639" viewBox="0 0 729 639" fill="none" xmlns="http://www.w3.org/2000/svg">
<path d="M343.078 13.3913C352.699 -3.28179 376.764 -3.28181 386.385 13.3913L725.124 600.407C734.742 617.074 722.713 637.902 703.471 637.902H25.9927C6.75018 637.902 -5.27822 617.074 4.33932 600.407L343.078 13.3913Z" fill="#282E29"/>
<path d="M343.078 92.4402C352.7 75.7671 376.764 75.7671 386.385 92.4403L656.701 560.882C666.319 577.549 654.29 598.378 635.048 598.378H94.416C75.1735 598.378 63.145 577.549 72.7625 560.882L343.078 92.4402Z" fill="#E2EAEA"/>
<path d="M267.083 460.408L211.836 606.795H324.496L267.083 460.408Z" fill="#282E29"/>
<ellipse cx="291.576" cy="417.224" rx="82.666" ry="82.7086" fill="#282E29"/>
<line x1="412.041" y1="573.126" x2="412.041" y2="611.186" stroke="#282E29" stroke-width="20"/>
<line x1="547" y1="573" x2="547" y2="611.061" stroke="#282E29" stroke-width="20"/>
<line x1="504" y1="428" x2="504" y2="559.748" stroke="#282E29" stroke-width="18"/>
<line x1="519.801" y1="348.986" x2="481.801" y2="536.476" stroke="#282E29" stroke-width="20"/>
<line x1="387.41" y1="563.126" x2="570.299" y2="563.126" stroke="#282E29" stroke-width="20"/>
<line x1="10" y1="-10" x2="138.174" y2="-10" transform="matrix(0.987428 0.15807 -0.157911 0.987453 248.414 536.529)" stroke="#282E29" stroke-width="20" stroke-linecap="round"/>
<line y1="-10" x2="58.6891" y2="-10" transform="matrix(0.997196 -0.0748282 0.0747517 0.997202 410.82 570.198)" stroke="#282E29" stroke-width="20"/>
</svg>
